<?xml version="1.0" encoding="UTF-8"?>
<svg version="1.1" xmlns="http://www.w3.org/2000/svg" width="1017" height="854">
<path d="M0 0 C335.61 0 671.22 0 1017 0 C1017 281.82 1017 563.64 1017 854 C681.39 854 345.78 854 0 854 C0 572.18 0 290.36 0 0 Z " fill="#FEF8E8" transform="translate(0,0)"/>
<path d="M0 0 C0.98226562 0.63808594 0.98226562 0.63808594 1.984375 1.2890625 C10.3208792 7.30167393 14.50618909 19.41295192 16.56640625 29.07421875 C18.8014391 44.15565664 15.26759108 58.00063209 6.33145142 70.29573059 C-1.34711759 79.92236858 -10.1836219 88.41489331 -18.9140625 97.07421875 C-20.65614322 98.81001616 -22.3977012 100.54633835 -24.13876343 102.28315735 C-28.69870011 106.829868 -33.26418773 111.37095906 -37.83135986 115.91040039 C-45.14785814 123.18357929 -52.45751808 130.46361486 -59.76392746 137.74692726 C-62.30453482 140.27737905 -64.84856218 142.80435371 -67.39297485 145.33097839 C-68.96083127 146.89200229 -70.528576 148.45313838 -72.09619141 150.0144043 C-72.79559341 150.70706894 -73.49499542 151.39973358 -74.21559143 152.11338806 C-78.13859434 156.02740018 -81.86356755 160.04578159 -85.45441246 164.26752949 C-87.7324152 166.82097436 -90.25795217 168.91930386 -92.875 171.125 C-104.44282842 181.40347291 -112.39841224 195.51559269 -113.4375 211.125 C-114.07399504 228.51467317 -110.31878613 243.88567299 -98.625 257.25 C-97.10080108 258.85015568 -95.55995625 260.43468308 -94 262 C-93.37351562 262.6496875 -92.74703125 263.299375 -92.1015625 263.96875 C-81.92134171 273.76238012 -67.34612768 278.03660177 -53.5 278.375 C-36.24989918 277.9362894 -22.05525559 271.13955807 -10 259 C-8.6219922 257.64491908 -7.24300195 256.29083684 -5.86328125 254.9375 C-2.98135533 252.09410591 -0.10347419 249.24698203 2.75390625 246.37890625 C3.35533447 245.7763501 3.9567627 245.17379395 4.57641602 244.55297852 C6.09480288 243.03933422 6.09480288 243.03933422 7 241 C7.66 241 8.32 241 9 241 C9.20036865 240.46133301 9.4007373 239.92266602 9.60717773 239.36767578 C11.58513931 236.00531445 14.40682063 233.6896611 17.28515625 231.1171875 C18.55241689 229.93865198 19.81731649 228.75757355 21.08007812 227.57421875 C23.05766244 225.72522012 25.04204597 223.89306039 27.0715332 222.10107422 C36.65056529 213.64916789 36.65056529 213.64916789 40.22434998 201.79824829 C40.26389125 199.49549887 40.21277094 197.22139056 40.10644531 194.92114258 C39.96534656 189.72346591 41.15501369 186.26747947 44 182 C44.59941406 181.05447266 44.59941406 181.05447266 45.2109375 180.08984375 C49.24289059 174.60126021 54.46564387 171.69017988 61 170 C67.36743823 169.38503615 73.62123245 169.65040827 80 170 C81.16756836 170.0613916 82.33513672 170.1227832 83.53808594 170.18603516 C129.62325841 172.71603884 129.62325841 172.71603884 139.45703125 183.4140625 C143.82239907 190.73019794 144.43596377 198.41309049 144.25 206.75 C144.23759277 207.7913208 144.22518555 208.8326416 144.21240234 209.90551758 C144.16979857 212.91166602 144.11025755 215.91697285 144.0435791 218.92266846 C143.99657945 221.16305081 143.95802951 223.40347588 143.92089844 225.64404297 C143.8508669 229.82264345 143.76890789 234.00086684 143.67858887 238.17907715 C143.64334027 239.82901681 143.61016008 241.47900218 143.57922363 243.12902832 C142.97688924 273.82930828 142.97688924 273.82930828 133.75 283.3125 C128.28772245 286.66435213 123.22576666 288.04814339 116.8359375 287.984375 C109.31798525 288.61580241 105.62409909 293.22293958 100.75 298.5625 C99.4815625 299.88604492 99.4815625 299.88604492 98.1875 301.23632812 C94.4770727 305.13400526 90.88147759 309.11381609 87.375 313.1953125 C83.91633985 317.1862679 80.1427082 320.75022873 76.25 324.3125 C71.45806055 328.74185691 66.74905499 333.2084308 62.1875 337.875 C57.09393352 343.00652152 51.74272311 347.60990176 46 352 C45.08476562 352.70511719 44.16953125 353.41023438 43.2265625 354.13671875 C14.29623313 375.28395426 -20.34259922 386.42498014 -56.0625 386.375 C-56.72953949 386.37445618 -57.39657898 386.37391235 -58.08383179 386.37335205 C-90.1923639 386.25406575 -122.47745769 375.74958631 -148 356 C-149.1082848 355.18471384 -150.21770231 354.3709657 -151.328125 353.55859375 C-189.31879911 325.28123118 -211.93142004 283.41147978 -219.62109375 237.2734375 C-221.62528262 219.37646215 -221.19914058 199.49830548 -217 182 C-216.70198486 180.74751465 -216.70198486 180.74751465 -216.39794922 179.46972656 C-213.25202156 166.68335693 -208.81949141 154.79654109 -203 143 C-202.61295898 142.20819336 -202.22591797 141.41638672 -201.82714844 140.60058594 C-190.02939721 116.69085766 -173.29611744 97.07680969 -154.44700241 78.37183762 C-152.72802275 76.66586643 -151.01240151 74.9565765 -149.29751587 73.24649048 C-145.65951991 69.61979957 -142.01756868 65.99709737 -138.375 62.375 C-134.140564 58.16431137 -129.90784574 53.9519241 -125.67934036 49.73527908 C-124.00260175 48.06494266 -122.32284425 46.39768557 -120.64291382 44.7305603 C-115.72927644 39.84034945 -110.91522207 34.91610047 -106.40838623 29.64215088 C-79.27580423 -1.9939106 -39.4829086 -28.89312186 0 0 Z " fill="#251816" transform="translate(423,333)"/>
<path d="M0 0 C0.85335938 0.73734375 1.70671875 1.4746875 2.5859375 2.234375 C3.58367187 3.09546875 4.58140625 3.9565625 5.609375 4.84375 C33.16207664 29.15444742 50.11565942 61.45658487 57.5859375 97.234375 C57.81023437 98.25772949 57.81023437 98.25772949 58.0390625 99.30175781 C67.12921831 141.99022659 56.8389183 187.72099576 33.5859375 224.234375 C23.71680262 238.38747512 10.45550577 250.50347121 -1.72895241 262.6244297 C-4.24206711 265.12457791 -6.75186647 267.62801448 -9.26091003 270.13224792 C-14.57995645 275.43997365 -19.90296292 280.74371658 -25.2265625 286.046875 C-31.41995525 292.21657245 -37.61166262 298.3879426 -43.79916954 304.56354332 C-46.26036119 307.0182998 -48.72456532 309.4700037 -51.18891907 311.92158508 C-52.70657985 313.43561137 -54.22409931 314.94977935 -55.74145508 316.46411133 C-56.75543617 317.47034294 -56.75543617 317.47034294 -57.78990173 318.49690247 C-61.62424663 322.33082513 -65.27386276 326.27079191 -68.80655956 330.38485241 C-82.99937514 346.71448542 -98.72198184 358.33070318 -120.87890625 360.47265625 C-134.96879418 360.89557548 -148.97030007 356.12094765 -159.6640625 346.984375 C-169.6302372 337.53369209 -176.09694143 324.57679635 -176.7890625 310.734375 C-176.12090134 286.49497297 -162.41687485 271.22094945 -145.8515625 255.296875 C-143.33417299 252.84479683 -140.82186164 250.38763507 -138.31129456 247.92857361 C-136.76035034 246.41289403 -135.20462861 244.90208076 -133.64317322 243.39723206 C-129.53168732 239.4162088 -125.66182635 235.32703335 -121.93299866 230.98558044 C-120.12658693 228.90293988 -118.22492509 226.94657005 -116.2578125 225.015625 C-115.54496094 224.31050781 -114.83210937 223.60539062 -114.09765625 222.87890625 C-112.64192708 221.44921875 -111.18619792 220.01953125 -109.73046875 218.58984375 C-105.70666725 214.60970013 -101.89238667 210.54097509 -98.20068359 206.25244141 C-94.94580594 202.57591522 -91.45688444 199.13340132 -87.9765625 195.671875 C-87.26435547 194.95580078 -86.55214844 194.23972656 -85.81835938 193.50195312 C-81.75206435 189.44304465 -77.59529311 185.55725518 -73.22314453 181.82910156 C-70.68994424 179.59605645 -68.3532818 177.18915618 -65.99609375 174.7734375 C-64.4140625 173.234375 -64.4140625 173.234375 -61.9140625 171.421875 C-51.72764234 162.50875736 -46.39430769 148.46768509 -45.4140625 135.234375 C-44.24286687 117.41547009 -50.67020828 102.14790673 -62.02416992 88.70874023 C-71.36072383 78.80474427 -85.81050973 72.57378373 -99.296875 71.86328125 C-120.99075654 71.3555696 -135.04591932 78.83944469 -150.72441864 93.61885071 C-155.4630262 98.14958988 -160.06640486 102.81730827 -164.67412186 107.48040009 C-166.63203473 109.46077829 -168.59426138 111.43679168 -170.55770874 113.41168213 C-176.13047679 119.01764364 -181.69876395 124.62800026 -187.25683594 130.24853516 C-190.6811559 133.71072448 -194.11293858 137.16536888 -197.54944992 140.61545563 C-198.84467313 141.91866245 -200.13712987 143.22462554 -201.42659378 144.53353119 C-216.89742913 160.23382214 -233.06245631 172.04821322 -255.9765625 172.609375 C-268.66650193 172.30909866 -281.25221515 168.80381878 -290.7578125 160.015625 C-303.26981436 146.55932111 -305.21225112 131.43405809 -304.59326172 113.82519531 C-303.27003498 94.69429322 -291.03181054 79.01946511 -278.375 65.62890625 C-277.68531128 64.89801788 -276.99562256 64.16712952 -276.28503418 63.41409302 C-268.18858304 54.88021105 -259.88427225 46.55406116 -251.55664062 38.24658203 C-248.88553642 35.5809069 -246.2199124 32.90983338 -243.5546875 30.23828125 C-241.8310502 28.51530378 -240.10710325 26.79263602 -238.3828125 25.0703125 C-237.59934448 24.28482025 -236.81587646 23.499328 -236.00866699 22.69003296 C-222.582486 9.32038743 -207.83158381 -3.22989997 -191.4140625 -12.765625 C-190.72538086 -13.1687793 -190.03669922 -13.57193359 -189.32714844 -13.98730469 C-131.06039283 -47.60373442 -52.93577111 -42.53490113 0 0 Z " fill="#211615" transform="translate(756.4140625,134.765625)"/>
<path d="M0 0 C5.22957241 3.18240883 8.28063441 7.58327856 10.1953125 13.3359375 C11.33967678 22.11826803 9.52112224 28.71876129 4.39453125 35.8359375 C2.38737288 38.39262855 0.3144659 40.87152877 -1.8046875 43.3359375 C-2.43117188 44.08488281 -3.05765625 44.83382812 -3.703125 45.60546875 C-6.83390493 49.28994557 -9.96366372 52.37286201 -13.8046875 55.3359375 C-14.4646875 56.3259375 -15.1246875 57.3159375 -15.8046875 58.3359375 C-16.4646875 58.3359375 -17.1246875 58.3359375 -17.8046875 58.3359375 C-17.8046875 58.9959375 -17.8046875 59.6559375 -17.8046875 60.3359375 C-18.4646875 60.3359375 -19.1246875 60.3359375 -19.8046875 60.3359375 C-20.07238953 60.92909539 -20.34009155 61.52225328 -20.61590576 62.13338566 C-21.81998093 64.36427287 -23.0304197 65.80113154 -24.82519531 67.57676697 C-25.75423424 68.50342667 -25.75423424 68.50342667 -26.70204163 69.44880676 C-27.71964821 70.44855782 -27.71964821 70.44855782 -28.7578125 71.46850586 C-29.47355942 72.17972595 -30.18930634 72.89094604 -30.92674255 73.62371826 C-32.4823866 75.16840334 -34.04029703 76.71080852 -35.60018921 78.25120354 C-38.07816059 80.6989682 -40.54935954 83.15338624 -43.01879883 85.60975647 C-50.04196278 92.59322989 -57.07752475 99.56416287 -64.11669922 106.53149414 C-68.42430881 110.796068 -72.72432784 115.06818285 -77.0201416 119.34463692 C-78.65007262 120.96408332 -80.28290563 122.5806149 -81.91882324 124.1940136 C-98.70283656 140.56984869 -98.70283656 140.56984869 -111.1796875 160.2734375 C-111.48261719 160.86060547 -111.78554688 161.44777344 -112.09765625 162.05273438 C-117.63934125 173.36012993 -119.48849671 184.77922749 -119.3046875 197.2734375 C-119.29332764 198.58940918 -119.28196777 199.90538086 -119.27026367 201.26123047 C-119.08406423 210.55967299 -118.22289289 218.62176258 -114.8046875 227.3359375 C-114.4540625 228.34527344 -114.1034375 229.35460937 -113.7421875 230.39453125 C-105.61674008 252.09060441 -89.11154773 269.3426024 -68.3046875 279.2109375 C-65.82219074 280.30636045 -63.32376925 281.32347074 -60.8046875 282.3359375 C-59.80179687 282.77035156 -58.79890625 283.20476562 -57.765625 283.65234375 C-38.40142732 290.68718519 -13.1316331 288.13580405 5.44213867 279.65039062 C16.19038812 274.43696246 25.54788683 267.56194883 33.671875 258.76953125 C35.1953125 257.3359375 35.1953125 257.3359375 37.1953125 257.3359375 C37.44966064 256.75489258 37.70400879 256.17384766 37.96606445 255.57519531 C39.32804745 253.09414108 40.8384569 251.48075647 42.86328125 249.5078125 C43.59224609 248.78980469 44.32121094 248.07179688 45.07226562 247.33203125 C45.83474609 246.59082031 46.59722656 245.84960938 47.3828125 245.0859375 C52.35652411 240.22869615 57.16520653 235.334516 61.6965332 230.05957031 C63.44097032 228.05342501 65.28315609 226.18215749 67.1953125 224.3359375 C69.75400509 221.81638361 72.17701861 219.25474968 74.5078125 216.5234375 C77.98037663 212.47076985 81.73336292 208.73935745 85.55200195 205.01635742 C89.09695359 201.73817224 89.09695359 201.73817224 90.30883789 197.27294922 C90.30098267 196.03182373 90.30098267 196.03182373 90.29296875 194.765625 C90.28813477 193.42177734 90.28813477 193.42177734 90.28320312 192.05078125 C90.27482422 191.11363281 90.26644531 190.17648437 90.2578125 189.2109375 C90.25104492 187.79361328 90.25104492 187.79361328 90.24414062 186.34765625 C90.23233607 184.01035363 90.21587009 181.67317689 90.1953125 179.3359375 C95.46116358 179.57083132 100.72679759 179.80965858 105.9921875 180.0546875 C109.96045685 180.23833474 113.92875426 180.40488813 117.8984375 180.5546875 C119.66406523 180.62753798 121.42969035 180.7004518 123.1953125 180.7734375 C124.01225586 180.80042725 124.82919922 180.82741699 125.67089844 180.85522461 C130.1863588 181.05193867 133.93915343 181.65120787 138.1953125 183.3359375 C138.36501806 202.02240534 137.83865505 220.66360436 137.1953125 239.3359375 C136.1434375 239.33980469 136.1434375 239.33980469 135.0703125 239.34375 C134.1215625 239.38242187 133.1728125 239.42109375 132.1953125 239.4609375 C131.2671875 239.48414063 130.3390625 239.50734375 129.3828125 239.53125 C121.37897437 241.55182678 115.41899335 248.82588943 109.78515625 254.515625 C109.01401993 255.28721954 108.24288361 256.05881409 107.44837952 256.85379028 C105.82835899 258.47681455 104.2107519 260.10225104 102.59545898 261.72998047 C100.14162376 264.20206073 97.67989258 266.66605619 95.21679688 269.12890625 C93.63494469 270.71567546 92.05354919 272.30290009 90.47265625 273.890625 C89.38331032 274.98164017 89.38331032 274.98164017 88.2719574 276.09469604 C84.26294006 280.1405467 80.41424459 284.27596676 76.70030212 288.59483337 C51.78769634 317.41592292 16.25708209 336.36409639 -21.8046875 339.3359375 C-60.78183023 341.80625853 -97.23926092 327.5756772 -126.39453125 302.0703125 C-136.74453733 292.20677349 -146.12169538 279.98856865 -152.8046875 267.3359375 C-153.11212891 266.76584961 -153.41957031 266.19576172 -153.73632812 265.60839844 C-170.70183462 233.96432275 -175.17819387 196.42987219 -165.07324219 161.83154297 C-157.36317405 136.38831811 -142.81307593 111.59554253 -123.58380795 93.11466885 C-121.81954978 91.35079653 -120.19823098 89.52177482 -118.57704163 87.62623596 C-114.89195822 83.38794415 -111.02090248 79.37038969 -107.07202148 75.37866211 C-105.9630526 74.25260811 -105.9630526 74.25260811 -104.8316803 73.10380554 C-97.14963297 65.31167739 -89.43625929 57.55043145 -81.72045898 49.79174805 C-78.07132728 46.12032933 -74.4322136 42.43940129 -70.80151367 38.74975586 C-66.39352151 34.27037656 -61.96829534 29.8087104 -57.53059578 25.35876656 C-55.85301611 23.67084632 -54.18141183 21.97696344 -52.51623344 20.27680779 C-38.47442417 5.95533971 -21.41049034 -9.70700688 0 0 Z " fill="#FD9419" transform="translate(400.8046875,351.6640625)"/>
<path d="M0 0 C1.05405029 0.26538574 1.05405029 0.26538574 2.12939453 0.53613281 C24.87220982 6.41605693 44.75464608 17.04161279 62 33 C63.28583984 34.16402344 63.28583984 34.16402344 64.59765625 35.3515625 C90.04462307 59.46770538 105.20567043 94.53813104 106.18359375 129.43359375 C106.86630449 169.43702939 92.34382388 204.19746811 65 233 C60.76495177 237.36885338 56.44432822 241.65227851 52.125 245.9375 C51.01278109 247.0446811 49.90080113 248.15210228 48.7890625 249.25976562 C46.75683301 251.283948 44.72325499 253.30675255 42.68798828 255.32788086 C40.88143269 257.12377105 39.07759797 258.92240203 37.27636719 260.72363281 C35.85936289 262.14063711 34.43737444 263.55269687 33.0078125 264.95703125 C32.38648438 265.56933594 31.76515625 266.18164062 31.125 266.8125 C30.50882813 267.41707031 29.89265625 268.02164062 29.2578125 268.64453125 C27.45416077 270.5261956 25.76709265 272.43185401 24.0769043 274.41210938 C19.12177408 280.08606653 13.81146793 285.41294872 8.51171875 290.76171875 C7.96795908 291.3108021 7.42419941 291.85988544 6.86396217 292.42560768 C3.98971982 295.32638254 1.11194361 298.22360333 -1.76831055 301.1184082 C-4.13282012 303.49628119 -6.489834 305.88122214 -8.84057617 308.27270508 C-11.70333241 311.18503495 -14.57840938 314.08465541 -17.46251488 316.97583961 C-18.54990412 318.06989032 -19.63307743 319.16815 -20.7116642 320.27087975 C-29.43283198 329.17616855 -37.7737203 336.04724398 -50.6875 336.3125 C-56.68694135 336.24453516 -61.30256391 335.92361251 -66 332 C-72.70553748 324.80812684 -73.65011884 318.54145968 -73.3984375 308.82421875 C-71.79074981 293.3935693 -52.82757373 279.72480966 -42.375 269.375 C-39.62980446 266.65665547 -36.88812568 263.93483134 -34.1484375 261.2109375 C-33.53471283 260.60551117 -32.92098816 260.00008484 -32.28866577 259.37631226 C-29.35978178 256.4637966 -26.5506113 253.51310252 -23.87353516 250.36694336 C-19.12284292 244.87191026 -13.9041133 239.84289053 -8.73248291 234.7490139 C-6.83613922 232.87966108 -4.9444977 231.00566784 -3.05419922 229.13020325 C2.31537563 223.80302712 7.68758626 218.47860827 13.07617188 213.1706543 C16.38688286 209.90881103 19.68745015 206.63698811 22.98187256 203.35869789 C24.22837033 202.12200965 25.47849166 200.88896133 26.73248291 199.65987206 C43.97964575 182.74776272 54.89447125 162.922306 55.24145508 138.27319336 C55.31926815 112.45037046 47.05623108 91.57521962 29.125 72.8125 C12.39714167 56.69821176 -10.11439594 48.16358075 -33.11938477 48.48046875 C-66.65332872 49.67439761 -88.90235299 69.50724421 -111.32299423 92.43122101 C-114.67447357 95.85292017 -118.04399303 99.25681913 -121.41015625 102.6640625 C-125.65446847 106.96219528 -129.89338685 111.26526946 -134.11376953 115.58691406 C-137.56155184 119.11646291 -141.02674485 122.62809047 -144.50369644 126.12889862 C-145.81041175 127.45088276 -147.11087411 128.77908252 -148.40441513 130.11396027 C-158.12883015 140.14027787 -167.71905989 148.93035748 -182.375 149.75 C-189.92491471 149.33526253 -194.02735184 146.89230631 -199.3125 141.75 C-204.00822254 134.09771141 -205.42511118 125.9973429 -203.34375 117.23828125 C-199.11316676 104.16359082 -188.41106193 95.11250127 -178.921875 85.65625 C-177.54546467 84.27848925 -176.16935107 82.900432 -174.79351807 81.52209473 C-171.91880436 78.6444455 -169.04053922 75.77041015 -166.15966797 72.89892578 C-162.49397649 69.24460614 -158.83731079 65.58140781 -155.18330002 61.9154129 C-152.34539244 59.07022567 -149.50267344 56.22988384 -146.65854645 53.39091492 C-145.30968294 52.0433722 -143.9622662 50.69437947 -142.61641693 49.34382629 C-125.81106603 32.49264579 -107.81439714 17.83542716 -86 8 C-84.96359375 7.51917969 -83.9271875 7.03835937 -82.859375 6.54296875 C-57.72118617 -4.58101588 -26.64867987 -6.80531859 0 0 Z " fill="#49A2F0" transform="translate(683,130)"/>
<path d="M0 0 C3.97693906 2.02462352 6.76862049 4.13652577 9 8 C9.32950013 10.80817227 9.47546575 13.32001846 9.4375 16.125 C9.42920166 16.92413818 9.42090332 17.72327637 9.41235352 18.54663086 C9.16926642 27.36437739 7.26486799 35.51356693 5 44 C4.75330566 44.96921387 4.50661133 45.93842773 4.25244141 46.93701172 C0.69247062 60.90809411 -3.44183078 74.13778297 -10 87 C-10.34256836 87.67820801 -10.68513672 88.35641602 -11.03808594 89.05517578 C-31.24718689 128.44691356 -66.72624258 156.21075634 -106 175 C-107.33503508 175.66325225 -108.66935207 176.32798936 -110 177 C-108.329375 177.61875 -108.329375 177.61875 -106.625 178.25 C-105.90054688 178.5284375 -105.17609375 178.806875 -104.4296875 179.09375 C-102.76140043 179.71600499 -101.07747922 180.29740968 -99.3828125 180.84375 C-91.81444386 183.44888579 -91.81444386 183.44888579 -89.4375 187.3125 C-86.15023736 195.74504328 -86.15023736 195.74504328 -87.69921875 199.85546875 C-90.18183555 204.4576319 -92.95507102 208.02401117 -97.75 210.3125 C-105.34298082 211.91870748 -112.34044639 209.08050503 -119.421875 206.54296875 C-120.4031134 206.19873367 -121.38435181 205.8544986 -122.39532471 205.49983215 C-125.51625557 204.40322983 -128.63317777 203.29571955 -131.75 202.1875 C-134.84722431 201.09463194 -137.94523332 200.00401092 -141.0433197 198.91358948 C-143.02901439 198.21405026 -145.01418295 197.51301562 -146.99879456 196.81040955 C-152.93738994 194.71047545 -158.88767203 192.67740055 -164.89331055 190.77636719 C-169.95857558 188.9096917 -172.64004501 185.71990998 -175 181 C-176.59761623 176.64286484 -176.93109087 172.13311393 -175.046875 167.81640625 C-171.69010026 161.94205046 -167.51477453 156.72086408 -163.3112793 151.44384766 C-155.21584503 141.28065407 -148.09683832 130.94555694 -141.9296875 119.48364258 C-138.88320398 113.9740079 -135.88188027 109.14387695 -129.5078125 107.265625 C-123.15267129 107.22395194 -120.02918588 108.84067538 -115.49609375 113.2734375 C-112.37443342 116.87598024 -112.54763461 120.29987961 -112.58984375 124.91650391 C-113.3175038 130.38694819 -116.10249744 134.58347285 -119 139.1875 C-119.57234375 140.13947266 -120.1446875 141.09144531 -120.734375 142.07226562 C-122.13530443 144.39547359 -123.55671236 146.7029591 -125 149 C-107.60732874 149 -87.22963888 130.94763536 -75 120 C-73.56349806 118.74885315 -72.12614205 117.49868543 -70.6875 116.25 C-70.06875 115.69957031 -69.45 115.14914062 -68.8125 114.58203125 C-67.60749694 113.53025056 -66.37777941 112.50611241 -65.125 111.51171875 C-43.02455766 93.55510935 -31.20677396 64.35434756 -23 38 C-22.62359375 36.85660156 -22.2471875 35.71320312 -21.859375 34.53515625 C-20.50783178 28.97539892 -20.25621845 23.34735506 -19.87695312 17.65039062 C-19.35436284 11.10153395 -18.45281104 6.27333706 -13.4375 1.625 C-8.83123923 -0.55250509 -5.01215657 -0.81498481 0 0 Z " fill="#251A17" transform="translate(665,559)"/>
<path d="M0 0 C4.27068191 2.30616823 7.63837394 4.73090674 10 9 C10.90354291 14.86380912 10.66742254 20.61304798 7.6640625 25.8203125 C2.20775119 32.96731182 -5.10274472 41.84479468 -14.37890625 43.3984375 C-19.03687942 43.34844137 -22.36508344 43.21949753 -26 40 C-28.9662328 35.91140884 -30.81890728 32.53386289 -30.50390625 27.30078125 C-28.13705844 16.494011 -21.52090196 9.40107079 -12.6328125 3.40234375 C-8.42422612 0.8587705 -5.01898869 -1.00379774 0 0 Z " fill="#231715" transform="translate(477,416)"/>
<path d="M0 0 C1.03769531 -0.02578125 2.07539062 -0.0515625 3.14453125 -0.078125 C8.77819896 0.5293565 12.53351584 3.90393801 16.01171875 8.1640625 C18.22922332 12.09810715 17.98546732 15.90551126 17.1875 20.25 C14.7043918 27.67304831 10.26585589 33.35143491 3.4375 37.125 C-1.38291015 39.34152788 -5.56061094 40.32860294 -10.8125 39.25 C-15.63102225 36.88619663 -18.48326821 34.08763525 -20.8125 29.25 C-22.3157154 21.99309806 -20.04987072 16.32185166 -16.60546875 9.96484375 C-12.36650275 3.54636582 -7.71319513 0.11412866 0 0 Z " fill="#231815" transform="translate(517.8125,370.75)"/>
<path d="M0 0 C4.07020084 2.34399959 7.22329994 5.65695542 9 10 C10.27587601 16.48248116 8.5449028 21.14860497 4.97265625 26.5703125 C-0.67485046 33.52625146 -8.01590997 38.98143148 -16.9375 40.5 C-21.36119589 39.77776394 -24.57292644 37.85327454 -28 35 C-30.43166495 31.14986382 -30.45536196 27.47772597 -30 23 C-27.08767455 13.61801197 -18.72200152 5.69957255 -11 0 C-7.12998829 -1.2900039 -3.87707166 -1.07206906 0 0 Z " fill="#231815" transform="translate(575,321)"/>
<path d="M0 0 C0.99 0.495 0.99 0.495 2 1 C1 3 1 3 -1.57341003 4.15917969 C-6.09707282 6.58936551 -9.23430315 9.82311993 -12.82543945 13.453125 C-13.58548782 14.20952271 -14.34553619 14.96592041 -15.12861633 15.74523926 C-17.6309542 18.23949161 -20.12230057 20.74440923 -22.61328125 23.25 C-24.35057835 24.98781581 -26.08839401 26.72511336 -27.82670593 28.46191406 C-31.46351666 32.09881442 -35.09511033 35.74082076 -38.72290039 39.38671875 C-43.37964994 44.06619708 -48.04743618 48.73447707 -52.71893024 53.39923096 C-56.30600277 56.98296761 -59.88807977 60.57166273 -63.46855736 64.1619873 C-65.18847161 65.88575725 -66.90974426 67.60817291 -68.63237953 69.32922363 C-71.03373873 71.73021327 -73.42851425 74.13757657 -75.8215332 76.546875 C-76.53786926 77.26073364 -77.25420532 77.97459229 -77.99224854 78.71008301 C-78.64125626 79.36617554 -79.29026398 80.02226807 -79.9589386 80.69824219 C-80.52542272 81.26677917 -81.09190683 81.83531616 -81.67555714 82.42108154 C-83.23009801 84.07794451 -83.23009801 84.07794451 -84 87 C-84.99 87 -85.98 87 -87 87 C-86.67 87.99 -86.34 88.98 -86 90 C-88.475 90.495 -88.475 90.495 -91 91 C-87.70484487 85.55238632 -83.59898579 81.3157214 -79.09790039 76.83911133 C-78.30555496 76.04326126 -77.51320953 75.24741119 -76.69685364 74.42744446 C-74.08545161 71.80726471 -71.46683113 69.19443944 -68.84765625 66.58203125 C-67.02659837 64.75962573 -65.20583745 62.93692343 -63.38536072 61.11393738 C-59.57305756 57.29868843 -55.75726517 53.48697956 -51.9387207 49.67797852 C-47.53037822 45.28052674 -43.12929722 40.87590608 -38.73190314 36.46750814 C-34.49166676 32.2170884 -30.24581372 27.97233047 -25.99755669 23.72992516 C-24.19436254 21.92806495 -22.39265228 20.1247185 -20.59245491 18.31986427 C-18.07694236 15.79927311 -15.55510818 13.2851815 -13.03149414 10.77270508 C-12.28899414 10.02615662 -11.54649414 9.27960815 -10.78149414 8.51043701 C-4.01622839 1.80038222 -4.01622839 1.80038222 0 0 Z " fill="#EDB051" transform="translate(369,354)"/>
<path d="M0 0 C4.89739579 1.47530246 9.23063193 3.53510488 13.75 5.875 C42.27068306 20.31831173 74.71373775 24.408894 106 17 C106.99 16.505 106.99 16.505 108 16 C109.99960012 15.960008 112.00047242 15.95653201 114 16 C111.78359193 18.21640807 110.94422581 18.41844823 107.96484375 19.03515625 C107.15466797 19.20466797 106.34449219 19.37417969 105.50976562 19.54882812 C104.66091797 19.71833984 103.81207031 19.88785156 102.9375 20.0625 C102.11572266 20.23587891 101.29394531 20.40925781 100.44726562 20.58789062 C67.39649187 27.37487092 30.91395935 21.25856866 2.44140625 2.78515625 C1.63574219 2.19605469 0.83007812 1.60695313 0 1 C0 0.67 0 0.34 0 0 Z " fill="#E5AB4C" transform="translate(295,668)"/>
<path d="M0 0 C0.33 0 0.66 0 1 0 C0.9278125 0.69512695 0.855625 1.39025391 0.78125 2.10644531 C0.00169747 10.34317568 -0.08550385 18.48177733 0 26.75 C0.15397083 41.82374392 0.15397083 41.82374392 -1 49 C-0.34 49 0.32 49 1 49 C1.14695313 50.17433594 1.29390625 51.34867188 1.4453125 52.55859375 C3.31321228 66.35220422 6.61619267 79.06604662 13.33032227 91.3293457 C13.55131592 91.88066162 13.77230957 92.43197754 14 93 C13.67 93.66 13.34 94.32 13 95 C8.20459772 86.39505225 4.33852588 77.86540506 1.625 68.375 C1.38700684 67.55427002 1.14901367 66.73354004 0.90380859 65.88793945 C-2.40538973 53.72359364 -3.34488616 41.56583166 -3.3125 29 C-3.32861328 27.74960937 -3.34472656 26.49921875 -3.36132812 25.2109375 C-3.36589637 16.38508228 -2.174217 8.54221312 0 0 Z " fill="#EEAE46" transform="translate(234,522)"/>
<path d="M0 0 C1.18185615 3.54556846 0.80951792 4.01795562 -0.75 7.25 C-1.12125 8.03761719 -1.4925 8.82523437 -1.875 9.63671875 C-2.24625 10.41660156 -2.6175 11.19648438 -3 12 C-3.59060578 13.35101072 -4.17485835 14.7048339 -4.75 16.0625 C-5.36875 17.5165625 -5.36875 17.5165625 -6 19 C-6.66 19 -7.32 19 -8 19 C-8.2784375 19.99 -8.2784375 19.99 -8.5625 21 C-10.2907367 24.60675485 -12.57484586 27.12166032 -15.25390625 30.0625 C-16.68018983 31.64513233 -18.01181591 33.31262605 -19.3125 35 C-20.1478125 35.99 -20.1478125 35.99 -21 37 C-21.66 37 -22.32 37 -23 37 C-23.1546875 38.175625 -23.1546875 38.175625 -23.3125 39.375 C-24 42 -24 42 -27 44 C-27 43.34 -27 42.68 -27 42 C-33.50460105 47.48451952 -39.51483782 53.39579195 -45.5 59.4375 C-46.87671875 60.82098633 -46.87671875 60.82098633 -48.28125 62.23242188 C-50.52315055 64.48599899 -52.762666 66.74189075 -55 69 C-55.66 68.67 -56.32 68.34 -57 68 C-56.46430893 67.47319138 -55.92861786 66.94638275 -55.37669373 66.40361023 C-50.29153796 61.39912259 -45.21647491 56.38470203 -40.15202236 51.35927105 C-37.54896193 48.77694742 -34.94237562 46.19841957 -32.3269043 43.62866211 C-29.79561778 41.14133578 -27.27467828 38.64391946 -24.760149 36.13965797 C-23.34745032 34.73777776 -21.92464035 33.34610998 -20.50157166 31.95475769 C-12.75448485 24.21032948 -6.97779229 15.82767519 -2.5625 5.8125 C-2.06878906 4.70519531 -1.57507813 3.59789062 -1.06640625 2.45703125 C-0.53853516 1.24080078 -0.53853516 1.24080078 0 0 Z " fill="#66B1E1" transform="translate(734,294)"/>
<path d="M0 0 C1.75599684 3.04160625 2.25597449 5.24674995 2.265625 8.74609375 C2.26989502 9.6589917 2.27416504 10.57188965 2.27856445 11.51245117 C2.26913818 12.47771729 2.25971191 13.4429834 2.25 14.4375 C2.23876099 15.93083862 2.23876099 15.93083862 2.22729492 17.4543457 C1.88907204 40.66323792 -5.07889012 65.04693666 -17 85 C-18 83 -18 83 -17.125 80 C-16 77 -16 77 -15 75 C-14.34 75 -13.68 75 -13 75 C-13.33 73.68 -13.66 72.36 -14 71 C-12.515 70.505 -12.515 70.505 -11 70 C-10.13852168 68.24988936 -10.13852168 68.24988936 -9.625 66 C-8.71996644 62.65281238 -7.8026943 59.32144912 -6.76953125 56.01171875 C-6.55022949 55.29951172 -6.33092773 54.58730469 -6.10498047 53.85351562 C-5.67591804 52.46118137 -5.24176462 51.07040026 -4.80126953 49.68164062 C-1.29226454 38.06447626 -0.65572975 26.25156866 -0.375 14.1875 C-0.33668245 12.8014115 -0.2976236 11.41534328 -0.2578125 10.02929688 C-0.16462855 6.68632253 -0.07881757 3.3433386 0 0 Z " fill="#6FBBE8" transform="translate(787,250)"/>
<path d="M0 0 C5.90829997 -0.26915589 10.27732719 0.37696251 15.75 2.5625 C16.44174316 2.8320752 17.13348633 3.10165039 17.84619141 3.37939453 C35.81698608 10.61169541 51.90140013 23.34933236 62 40 C62.33 40.99 62.66 41.98 63 43 C62.01 43.495 62.01 43.495 61 44 C60.65001953 43.23429687 60.65001953 43.23429687 60.29296875 42.453125 C56.74803351 35.38830707 50.29239617 25.64619809 43 22 C43 21.34 43 20.68 43 20 C42.401875 20.20625 41.80375 20.4125 41.1875 20.625 C39 21 39 21 36 19 C36.33 18.34 36.66 17.68 37 17 C36.01 17.33 35.02 17.66 34 18 C33.505 17.01 33.505 17.01 33 16 C33.33 15.01 33.66 14.02 34 13 C33.3296875 12.74089844 32.659375 12.48179687 31.96875 12.21484375 C29.11710323 11.04791988 26.32790185 9.7741983 23.52929688 8.48657227 C15.7746835 4.95538703 8.42064525 2.51398588 0 1 C0 0.67 0 0.34 0 0 Z " fill="#05101E" transform="translate(665,180)"/>
<path d="M0 0 C11.00109518 -0.90172911 21.63889496 2.54629832 32 6 C32 6.66 32 7.32 32 8 C33.08087891 8.40412109 33.08087891 8.40412109 34.18359375 8.81640625 C47.10056813 14.24476026 59.83267252 25.69999897 68 37 C68.70703125 39.25390625 68.70703125 39.25390625 69 41 C65.73169539 37.83712457 62.69487875 34.53821879 59.6875 31.125 C44.42960043 14.18848094 22.94165307 2.83533225 0 1 C0 0.67 0 0.34 0 0 Z " fill="#6BB6E4" transform="translate(657,177)"/>
<path d="M0 0 C1.34167236 0.04930664 1.34167236 0.04930664 2.71044922 0.09960938 C10.85990491 0.40939682 18.93795049 0.71740121 27 2 C26.67 2.66 26.34 3.32 26 4 C25.19304688 3.9278125 24.38609375 3.855625 23.5546875 3.78125 C14.59075438 3.09610861 5.61245043 2.78135201 -3.37640381 2.65795898 C-5.33869318 2.62559874 -7.30051263 2.56791911 -9.26220703 2.50976562 C-17.19193611 2.43976412 -23.47701094 3.20998175 -30 8 C-32.05096884 10.24712051 -33.44547937 12.35731493 -35 15 C-35.66 14.67 -36.32 14.34 -37 14 C-34.42210801 9.79899083 -32.11321507 6.74214338 -28 4 C-27.45472656 3.62617188 -26.90945313 3.25234375 -26.34765625 2.8671875 C-18.34177311 -1.66683741 -8.86480614 -0.36122566 0 0 Z " fill="#0A0403" transform="translate(503,503)"/>
<path d="M0 0 C0.99 0.33 1.98 0.66 3 1 C-14.16 18.16 -31.32 35.32 -49 53 C-49.66 52.67 -50.32 52.34 -51 52 C-50.44956024 51.45178085 -49.89912048 50.90356171 -49.33200073 50.33872986 C-44.1218114 45.14865385 -38.91408966 39.95611981 -33.70905876 34.76087093 C-31.03361067 32.09062107 -28.35724904 29.42130093 -25.67871094 26.75415039 C-23.08939487 24.17577267 -20.50259471 21.59489454 -17.91745377 19.01233101 C-16.93525837 18.03197026 -15.95218957 17.05248369 -14.96819687 16.07392693 C-9.75037899 10.8837669 -4.68901936 5.67528325 0 0 Z " fill="#090201" transform="translate(610,220)"/>
<path d="M0 0 C0.66 0.33 1.32 0.66 2 1 C-2.07301048 5.90034073 -6.29662268 10.27955715 -11.1484375 14.41015625 C-14.37268886 17.178659 -17.28373531 20.0688559 -19.875 23.4375 C-21.63226429 25.556554 -23.21269503 27.08214847 -25.3125 28.8125 C-28.70569253 31.63168351 -31.51235325 34.7552648 -34.3671875 38.109375 C-36.45953822 40.53209688 -38.70562854 42.76936108 -41 45 C-41.556875 45.598125 -42.11375 46.19625 -42.6875 46.8125 C-44 48 -44 48 -46 48 C-44.49315032 44.46760977 -42.44633388 42.2037834 -39.73388672 39.50683594 C-38.85312469 38.62622498 -37.97236267 37.74561401 -37.06491089 36.83831787 C-36.10327649 35.88689569 -35.1415328 34.93558397 -34.1796875 33.984375 C-33.19561893 33.00403871 -32.21199258 32.02325832 -31.22879028 31.04205322 C-28.64557286 28.46645533 -26.05640488 25.89692143 -23.46594238 23.32861328 C-20.8213238 20.70448933 -18.1823899 18.07466229 -15.54296875 15.4453125 C-10.36751928 10.2912833 -5.18576878 5.14364843 0 0 Z " fill="#0C0503" transform="translate(312,368)"/>
<path d="M0 0 C0.33 0.66 0.66 1.32 1 2 C1.66 2 2.32 2 3 2 C3.4021875 3.2065625 3.4021875 3.2065625 3.8125 4.4375 C4.204375 5.283125 4.59625 6.12875 5 7 C5.99 7.33 6.98 7.66 8 8 C9.6875 9.4375 9.6875 9.4375 11 11 C11 11.66 11 12.32 11 13 C11.56332031 13.25523437 12.12664062 13.51046875 12.70703125 13.7734375 C15.28538389 15.1526585 17.39078762 16.815032 19.6875 18.625 C24.49407837 22.16839403 29.4153548 24.89019203 34.8125 27.4375 C35.52946045 27.7792627 36.2464209 28.12102539 36.98510742 28.47314453 C40.98589227 30.30561485 44.57937038 31.50727676 49 32 C49 32.99 49 33.98 49 35 C30.206227 31.24905986 13.40715057 19.08572324 1.0625 4.75 C0 3 0 3 0 0 Z " fill="#2B1405" transform="translate(299,602)"/>
<path d="M0 0 C0.99 0.33 1.98 0.66 3 1 C1 4 1 4 -1.3125 5.3125 C-4.03264509 7.02049808 -5.61032254 8.86258555 -7.5859375 11.359375 C-9.08832819 13.10248022 -10.67798187 14.51751238 -12.4375 16 C-18.46309698 21.12694198 -23.92836831 26.84842687 -29.48632812 32.47021484 C-31.31717398 34.32055035 -33.15710709 36.16166871 -35 38 C-34.41710597 34.52312179 -33.25337803 32.88525945 -30.76538086 30.42480469 C-30.08475082 29.74440125 -29.40412079 29.0639978 -28.7028656 28.36297607 C-27.96431839 27.63991272 -27.22577118 26.91684937 -26.46484375 26.171875 C-25.71159317 25.42286926 -24.95834259 24.67386353 -24.18226624 23.90216064 C-21.77428956 21.51097956 -19.35609255 19.13043835 -16.9375 16.75 C-15.30335262 15.13089823 -13.66988045 13.51111468 -12.03710938 11.890625 C-8.03254154 7.91913818 -4.01953193 3.9563379 0 0 Z " fill="#1A0702" transform="translate(520,596)"/>
<path d="M0 0 C0 3 0 3 -1.93359375 5.12109375 C-3.60016321 6.6628655 -5.26682957 8.20453251 -6.93359375 9.74609375 C-9.14293696 11.76241592 -9.14293696 11.76241592 -9.41015625 14.09765625 C-10 16 -10 16 -12.74609375 17.47265625 C-13.81988281 17.97667969 -14.89367187 18.48070312 -16 19 C-17.73816617 20.41928456 -19.42726965 21.90074628 -21.0625 23.4375 C-30.23350254 32 -30.23350254 32 -34 32 C-34 32.66 -34 33.32 -34 34 C-35.32 33.67 -36.64 33.34 -38 33 C-37.34515625 32.62230469 -36.6903125 32.24460937 -36.015625 31.85546875 C-29.69905618 28.0458997 -24.33607254 23.84383891 -19.06152344 18.7331543 C-17.05242939 16.80109606 -15.30186378 15.14589199 -12.77734375 13.92578125 C-10.42253249 12.69920923 -10.13443851 11.37123238 -9 9 C-7.50622437 7.37140707 -5.96011936 5.78983024 -4.375 4.25 C-3.55773437 3.45078125 -2.74046875 2.6515625 -1.8984375 1.828125 C-1.27195312 1.22484375 -0.64546875 0.6215625 0 0 Z " fill="#E6AA4A" transform="translate(449,596)"/>
<path d="M0 0 C0.66 0.33 1.32 0.66 2 1 C-6.48005615 9.11135806 -13.99139477 11.44684231 -25.703125 11.43359375 C-29.33891925 10.9554265 -31.83343189 9.80878209 -35 8 C-32.48015711 6.74007856 -30.96955649 7.30592699 -28.26953125 7.7265625 C-25.44582064 8.0667686 -22.65551195 8.22224565 -19.8125 8.3125 C-18.80832031 8.34988281 -17.80414062 8.38726562 -16.76953125 8.42578125 C-13.30603713 7.89331177 -12.29441104 6.54480334 -10 4 C-9.38125 4.185625 -8.7625 4.37125 -8.125 4.5625 C-5.99433005 5.26069659 -5.99433005 5.26069659 -4.4140625 3.96875 C-2.90279354 2.6916213 -1.44758422 1.34888529 0 0 Z " fill="#64B6EB" transform="translate(654,455)"/>
<path d="M0 0 C0 3 0 3 -2.64624023 5.95507812 C-3.85974819 7.1545421 -5.08111688 8.34608506 -6.30859375 9.53125 C-6.94990738 10.16357544 -7.59122101 10.79590088 -8.25196838 11.4473877 C-10.30684222 13.47216842 -12.37127715 15.48680645 -14.4375 17.5 C-16.49928808 19.51401816 -18.55879152 21.53017171 -20.61231995 23.5526123 C-21.89157618 24.81206053 -23.17574354 26.06654333 -24.4651947 27.31555176 C-25.04572098 27.8862439 -25.62624725 28.45693604 -26.22436523 29.04492188 C-26.73732651 29.54439331 -27.25028778 30.04386475 -27.77879333 30.55847168 C-29.24110405 32.10341993 -29.24110405 32.10341993 -30 35 C-30.99 35 -31.98 35 -33 35 C-32.67 35.99 -32.34 36.98 -32 38 C-34.475 38.495 -34.475 38.495 -37 39 C-33.7716745 33.67977748 -29.81131357 29.55092185 -25.390625 25.1953125 C-24.66381531 24.4713327 -23.93700562 23.74735291 -23.18817139 23.00143433 C-20.88012481 20.70452619 -18.56520026 18.41469504 -16.25 16.125 C-14.67792514 14.5629631 -13.10630551 13.0004679 -11.53515625 11.4375 C-7.69535848 7.61967851 -3.84989911 3.80763361 0 0 Z " fill="#E1AA4F" transform="translate(315,406)"/>
<path d="M0 0 C0.625 1.8125 0.625 1.8125 1 4 C0.01 5.485 0.01 5.485 -1 7 C-4.99541978 13.81858926 -4.75335343 20.28433628 -4 28 C-2.49177978 33.10474536 0.51450467 37.01657677 4 41 C-0.48844114 39.23668384 -2.89796618 36.37288984 -4.91796875 32.0234375 C-8.34235406 22.92389719 -7.58489967 15.4262114 -4.16796875 6.4453125 C-3.0119551 4.02502974 -1.68630968 2.07768814 0 0 Z " fill="#68B4E3" transform="translate(486,235)"/>
<path d="M0 0 C1.57499749 3.14999498 0.70833498 5.63540882 0 9 C-1.3125 10.5625 -1.3125 10.5625 -3 12 C-5.30023736 15.16282638 -7.13983091 18.18506624 -8.5625 21.8125 C-9.036875 22.864375 -9.51125 23.91625 -10 25 C-10.99 25.33 -11.98 25.66 -13 26 C-12.40108769 21.34278639 -10.41618755 17.61943941 -8.1875 13.5625 C-7.84396484 12.91990234 -7.50042969 12.27730469 -7.14648438 11.61523438 C-4.96623424 7.58606668 -2.59599315 3.77439902 0 0 Z " fill="#F0AD43" transform="translate(255,473)"/>
<path d="M0 0 C-0.969375 0.28875 -1.93875 0.5775 -2.9375 0.875 C-6.10664203 1.64214682 -6.10664203 1.64214682 -7 4 C-8.99371078 4.68524578 -10.99516396 5.3480208 -13 6 C-15.29445189 7.11950242 -17.56556732 8.28794032 -19.8125 9.5 C-20.95332031 10.1084375 -22.09414063 10.716875 -23.26953125 11.34375 C-26.08060836 12.71721776 -26.08060836 12.71721776 -27 15 C-27.99 15 -28.98 15 -30 15 C-30 15.66 -30 16.32 -30 17 C-32.31 17.66 -34.62 18.32 -37 19 C-33.3943101 15.12166814 -29.63804039 12.25083861 -25.0625 9.5625 C-24.41442383 9.17852051 -23.76634766 8.79454102 -23.09863281 8.39892578 C-5.46134888 -1.82044963 -5.46134888 -1.82044963 0 0 Z " fill="#6FB9E6" transform="translate(607,136)"/>
<path d="M0 0 C0.86157715 -0.0014502 1.7231543 -0.00290039 2.61083984 -0.00439453 C8.71882858 0.10421905 8.71882858 0.10421905 12.125 2.375 C11.50979492 2.36452637 10.89458984 2.35405273 10.26074219 2.34326172 C7.46553657 2.30161305 4.67039634 2.27564584 1.875 2.25 C0.90691406 2.23324219 -0.06117188 2.21648437 -1.05859375 2.19921875 C-1.99316406 2.19277344 -2.92773438 2.18632812 -3.890625 2.1796875 C-5.17888184 2.16397705 -5.17888184 2.16397705 -6.49316406 2.14794922 C-9.07341024 2.39391365 -10.62561621 3.13459044 -12.875 4.375 C-15.20703125 4.75390625 -15.20703125 4.75390625 -17.6875 4.9375 C-21.78410967 5.27736688 -25.81172004 5.75667479 -29.875 6.375 C-23.33083315 -0.16916685 -8.68166533 0.00158338 0 0 Z " fill="#071727" transform="translate(651.875,177.625)"/>
<path d="M0 0 C0.66 0.33 1.32 0.66 2 1 C-0.87755182 3.90247067 -3.75853053 6.80149318 -6.64257812 9.69750977 C-7.62104021 10.68096729 -8.59859887 11.66532459 -9.57519531 12.65063477 C-21.04995563 24.22512459 -21.04995563 24.22512459 -25 27 C-25.99 26.67 -26.98 26.34 -28 26 C-27.56171875 25.62230469 -27.1234375 25.24460937 -26.671875 24.85546875 C-17.48514254 16.88243062 -8.49026412 8.71500641 0 0 Z " fill="#0A0302" transform="translate(499,654)"/>
<path d="M0 0 C0 3 0 3 -1.18994141 4.56225586 C-1.73827637 5.10760986 -2.28661133 5.65296387 -2.8515625 6.21484375 C-3.45613281 6.81876953 -4.06070313 7.42269531 -4.68359375 8.04492188 C-5.64458984 8.98174805 -5.64458984 8.98174805 -6.625 9.9375 C-7.24246094 10.55818359 -7.85992188 11.17886719 -8.49609375 11.81835938 C-17.78529353 21 -17.78529353 21 -23 21 C-23.33 21.99 -23.66 22.98 -24 24 C-25.65 23.67 -27.3 23.34 -29 23 C-26.69700239 20.69700239 -24.81346381 20.06391406 -21.8125 18.8125 C-12.92055748 14.52319115 -6.62525604 7.15691239 0 0 Z " fill="#021222" transform="translate(537,256)"/>
<path d="M0 0 C2.58904089 2.3898839 4.69890994 4.90313183 6.75 7.75 C11.8778422 14.68614927 17.83811419 20.22540946 25 25 C24.34 25.33 23.68 25.66 23 26 C13.37444584 19.45531942 5.35723552 12.51696927 0 2 C0 1.34 0 0.68 0 0 Z " fill="#140D0B" transform="translate(315,579)"/>
<path d="M0 0 C0.33 0.66 0.66 1.32 1 2 C-0.27551005 5.82653016 -1.59101086 6.00512355 -5 8 C-6.66559598 9.5082568 -8.28462362 11.06894135 -9.86328125 12.66796875 C-10.74951172 13.56064453 -11.63574219 14.45332031 -12.54882812 15.37304688 C-13.46083984 16.30181641 -14.37285156 17.23058594 -15.3125 18.1875 C-16.2527888 19.1378315 -17.19353971 20.087706 -18.13476562 21.03710938 C-20.42775959 23.35362123 -22.71594652 25.67467801 -25 28 C-25 25 -25 25 -22.70507812 22.36450195 C-21.6548023 21.3147016 -20.59625766 20.27313331 -19.53125 19.23828125 C-18.97634888 18.68762497 -18.42144775 18.13696869 -17.84973145 17.56962585 C-16.07339313 15.81009875 -14.2869152 14.06127835 -12.5 12.3125 C-11.29489115 11.12243479 -10.09045517 9.93168777 -8.88671875 8.74023438 C-5.93223292 5.81885021 -2.96861031 2.90702744 0 0 Z " fill="#77C4F3" transform="translate(513,207)"/>
<path d="M0 0 C0.33 0.99 0.66 1.98 1 3 C-2.13159044 7.82381632 -6.07287711 11.14745517 -11 14 C-11.92746815 15.03500069 -12.8220979 16.10007054 -13.6875 17.1875 C-14.450625 18.115625 -15.21375 19.04375 -16 20 C-16.66 20 -17.32 20 -18 20 C-16.5735422 16.7413364 -14.83295838 14.5975146 -12.3046875 12.109375 C-11.23154297 11.04589844 -11.23154297 11.04589844 -10.13671875 9.9609375 C-9.39035156 9.23132813 -8.64398438 8.50171875 -7.875 7.75 C-7.12089844 7.00492188 -6.36679687 6.25984375 -5.58984375 5.4921875 C-3.73099228 3.6568658 -1.86762995 1.8263809 0 0 Z " fill="#F4AE3E" transform="translate(491,552)"/>
<path d="M0 0 C0 3.52599722 -0.53480434 3.97292161 -2.8125 6.5 C-3.33457031 7.0878125 -3.85664063 7.675625 -4.39453125 8.28125 C-5.44919972 9.41033546 -6.52977431 10.51586616 -7.63671875 11.59375 C-9.11341873 12.97561009 -9.11341873 12.97561009 -10 15 C-10.639375 15.309375 -11.27875 15.61875 -11.9375 15.9375 C-14.31971493 16.95345922 -14.31971493 16.95345922 -16 20 C-16.66 20 -17.32 20 -18 20 C-17.67 20.99 -17.34 21.98 -17 23 C-18.65 23.33 -20.3 23.66 -22 24 C-22 23.34 -22 22.68 -22 22 C-21.01 22 -20.02 22 -19 22 C-18.87733765 21.14390137 -18.87733765 21.14390137 -18.75219727 20.27050781 C-17.76355169 17.28628065 -16.20635515 15.86636168 -13.96484375 13.671875 C-13.15595703 12.87265625 -12.34707031 12.0734375 -11.51367188 11.25 C-10.66353516 10.425 -9.81339844 9.6 -8.9375 8.75 C-8.08349609 7.90953125 -7.22949219 7.0690625 -6.34960938 6.203125 C-4.23964588 4.12852403 -2.12300292 2.06124168 0 0 Z " fill="#F29716" transform="translate(304,419)"/>
<path d="M0 0 C2 2 2 2 2 6 C1.25363281 6.23460937 0.50726563 6.46921875 -0.26171875 6.7109375 C-3.47078906 8.2216268 -4.73874404 9.77866829 -6.8125 12.625 C-7.41707031 13.44226563 -8.02164062 14.25953125 -8.64453125 15.1015625 C-9.09183594 15.72804688 -9.53914063 16.35453125 -10 17 C-11 14 -11 14 -9.9609375 11.9140625 C-6.92504295 7.53220485 -3.9440309 3.59602817 0 0 Z " fill="#1F110A" transform="translate(303,492)"/>
<path d="M0 0 C0.66 0 1.32 0 2 0 C3.9718625 6.66677322 3.45497499 14.27074066 2 21 C1.34 21 0.68 21 0 21 C0 14.07 0 7.14 0 0 Z " fill="#F7F2EC" transform="translate(709,255)"/>
<path d="M0 0 C0 0.33 0 0.66 0 1 C-0.75023437 1.01417969 -1.50046875 1.02835937 -2.2734375 1.04296875 C-10.37469667 1.42048335 -18.00540419 2.64471834 -23.73046875 8.88671875 C-25.28557144 10.97013792 -25.28557144 10.97013792 -27 14 C-27.66 13.67 -28.32 13.34 -29 13 C-22.00921282 1.60760609 -12.94546352 -2.22613578 0 0 Z " fill="#110A08" transform="translate(495,504)"/>
<path d="M0 0 C0.33 0.66 0.66 1.32 1 2 C-1.06690517 6.49855831 -4.17949997 8.95919386 -8 12 C-9.35099103 13.31543863 -10.69205669 14.64175118 -12 16 C-12.66 15.34 -13.32 14.68 -14 14 C-9.38 9.38 -4.76 4.76 0 0 Z " fill="#29211F" transform="translate(326,353)"/>
<path d="M0 0 C0.33 0.99 0.66 1.98 1 3 C-0.299375 4.0209375 -0.299375 4.0209375 -1.625 5.0625 C-4.73123312 7.62403821 -7.20633843 10.49670088 -9.703125 13.64453125 C-10.13109375 14.09183594 -10.5590625 14.53914062 -11 15 C-11.66 15 -12.32 15 -13 15 C-13.226875 15.556875 -13.45375 16.11375 -13.6875 16.6875 C-15.35896766 19.63246684 -17.55276352 21.68156544 -20 24 C-20.66 23.67 -21.32 23.34 -22 23 C-21.57589844 22.5875 -21.15179688 22.175 -20.71484375 21.75 C-17.5353697 18.61944093 -14.47139071 15.44726915 -11.5625 12.0625 C-7.91592808 7.82750398 -3.99648447 3.90306016 0 0 Z " fill="#F0B34E" transform="translate(472,572)"/>
<path d="M0 0 C0.66 0.33 1.32 0.66 2 1 C1.07316406 1.89203125 0.14632812 2.7840625 -0.80859375 3.703125 C-2.01862278 4.88501382 -3.22823665 6.06732778 -4.4375 7.25 C-5.04916016 7.83652344 -5.66082031 8.42304688 -6.29101562 9.02734375 C-6.87431641 9.60097656 -7.45761719 10.17460937 -8.05859375 10.765625 C-8.59798584 11.28930664 -9.13737793 11.81298828 -9.69311523 12.35253906 C-11.14668478 13.943271 -11.14668478 13.943271 -11.49243164 16.12402344 C-11.6599292 16.7430957 -11.82742676 17.36216797 -12 18 C-15.0625 19.25 -15.0625 19.25 -18 20 C-15.37992868 14.83012748 -11.4093195 11.18486356 -7.3125 7.1875 C-6.61060547 6.49462891 -5.90871094 5.80175781 -5.18554688 5.08789062 C-3.46148959 3.38728991 -1.73292722 1.69155339 0 0 Z " fill="#5EADDF" transform="translate(674,365)"/>
<path d="M0 0 C0.33 0 0.66 0 1 0 C1.02505615 0.68513672 1.0501123 1.37027344 1.07592773 2.07617188 C1.19285607 5.2175935 1.31513874 8.35878548 1.4375 11.5 C1.47681641 12.57765625 1.51613281 13.6553125 1.55664062 14.765625 C1.74167833 19.4342686 1.94677786 23.98281559 2.72265625 28.59375 C2.85994141 30.27984375 2.85994141 30.27984375 3 32 C2.01 32.99 1.02 33.98 0 35 C0 23.45 0 11.9 0 0 Z " fill="#F4EFE9" transform="translate(566,554)"/>
<path d="M0 0 C0 3 0 3 -2.4375 5.625 C-3.283125 6.40875 -4.12875 7.1925 -5 8 C-6.15811388 9.05270463 -6.15811388 9.05270463 -7 11 C-8.66666667 11.33333333 -10.33333333 11.66666667 -12 12 C-12.33 12.66 -12.66 13.32 -13 14 C-13.66 13.67 -14.32 13.34 -15 13 C-10.61251614 7.3750207 -6.08867157 3.69379408 0 0 Z " fill="#150D0B" transform="translate(353,330)"/>
<path d="M0 0 C0.99 0 1.98 0 3 0 C3.268125 1.134375 3.53625 2.26875 3.8125 3.4375 C4.4003125 5.2009375 4.4003125 5.2009375 5 7 C5.99 7.33 6.98 7.66 8 8 C9.203125 10.36328125 9.203125 10.36328125 10.25 13.3125 C10.78367187 14.76076172 10.78367187 14.76076172 11.328125 16.23828125 C12.00546613 19.02246834 11.98017307 20.35478935 11 23 C10.70867188 22.23816406 10.41734375 21.47632813 10.1171875 20.69140625 C7.67206565 14.53246725 5.03811277 9.10783267 1.13671875 3.7421875 C0 2 0 2 0 0 Z " fill="#140D0C" transform="translate(699,227)"/>
<path d="M0 0 C3.322011 1.107337 3.83964446 1.78448676 5.9375 4.4375 C10.65080628 10.0345512 16.31213463 14.44223596 22 19 C14.3771447 19 6.74858252 8.97869614 1.6171875 3.8828125 C0 2 0 2 0 0 Z " fill="#E3AA4C" transform="translate(267,644)"/>
<path d="M0 0 C0 6.83519792 -8.40977901 13.52524475 -13.0625 18.1875 C-14.03639373 19.13047647 -15.01331194 20.07041929 -16 21 C-16 18 -16 18 -13.5625 15.5 C-12.2940625 14.2625 -12.2940625 14.2625 -11 13 C-10.67 12.01 -10.34 11.02 -10 10 C-9.01 10 -8.02 10 -7 10 C-6.773125 9.46375 -6.54625 8.9275 -6.3125 8.375 C-4.56617944 5.21499137 -2.3597151 2.7323017 0 0 Z " fill="#78C3EE" transform="translate(762,344)"/>
<path d="M0 0 C3.45285529 3.17323981 4.90523747 6.69758282 6.75 10.9375 C7.07871094 11.65357422 7.40742187 12.36964844 7.74609375 13.10742188 C8.05160156 13.80287109 8.35710938 14.49832031 8.671875 15.21484375 C8.9512793 15.84511475 9.23068359 16.47538574 9.51855469 17.12475586 C10.10362874 19.40363708 9.7298386 20.79245219 9 23 C8.51080078 21.78763672 8.51080078 21.78763672 8.01171875 20.55078125 C7.57472656 19.48214844 7.13773438 18.41351563 6.6875 17.3125 C6.25824219 16.25675781 5.82898438 15.20101562 5.38671875 14.11328125 C4.08093236 11.00793365 4.08093236 11.00793365 2.375 8.3125 C0.73611857 5.55619942 0.36758882 3.16126388 0 0 Z " fill="#6BBAE9" transform="translate(771,198)"/>
<path d="M0 0 C0 3 0 3 -2.25 5.375 C-3.1575 6.24125 -4.065 7.1075 -5 8 C-5.66 8.825 -6.32 9.65 -7 10.5 C-9.16224869 13.20281086 -11.52007193 15.58895882 -14 18 C-14.99 17.67 -15.98 17.34 -17 17 C-11.39 11.39 -5.78 5.78 0 0 Z " fill="#0A0301" transform="translate(654,346)"/>
<path d="M0 0 C5.21047642 0.43999579 10.15918951 0.87476613 15 3 C15.99 4.485 15.99 4.485 17 6 C14.54093963 5.52434234 12.08279007 5.04463948 9.625 4.5625 C8.92632813 4.42779297 8.22765625 4.29308594 7.5078125 4.15429688 C2.2265625 3.11328125 2.2265625 3.11328125 0 2 C0 1.34 0 0.68 0 0 Z " fill="#F0EBE4" transform="translate(677,99)"/>
<path d="M0 0 C0 0.99 0 1.98 0 3 C-0.7115625 3.6496875 -0.7115625 3.6496875 -1.4375 4.3125 C-3.62100982 6.6706906 -3.65266951 8.87402561 -4 12 C-6.64 12.33 -9.28 12.66 -12 13 C-8.19524578 8.43969176 -4.25030379 4.14910608 0 0 Z " fill="#5BB2EF" transform="translate(526,194)"/>
<path d="M0 0 C0 0.99 0 1.98 0 3 C-1.64333504 4.03789581 -3.31243867 5.03567924 -5 6 C-5.99 7.485 -5.99 7.485 -7 9 C-8.9453125 9.29296875 -8.9453125 9.29296875 -11.125 9.1875 C-13.043125 9.0946875 -13.043125 9.0946875 -15 9 C-11.91730861 6.55586611 -8.71528889 4.66890476 -5.25 2.8125 C-4.26515625 2.28269531 -3.2803125 1.75289062 -2.265625 1.20703125 C-1.51796875 0.80871094 -0.7703125 0.41039062 0 0 Z " fill="#EEE9E3" transform="translate(456,693)"/>
<path d="M0 0 C0.33 0 0.66 0 1 0 C2.0735426 15.94977578 2.0735426 15.94977578 -0.55859375 20.9765625 C-2.27296337 22.87375222 -3.93660438 24.4945634 -6 26 C-6.33 24.68 -6.66 23.36 -7 22 C-6.01 22 -5.02 22 -4 22 C-4 21.34 -4 20.68 -4 20 C-3.34 20 -2.68 20 -2 20 C-1.13580777 17.40742331 -0.82419068 15.65962293 -0.68359375 12.98828125 C-0.64169922 12.23095703 -0.59980469 11.47363281 -0.55664062 10.69335938 C-0.51732422 9.90767578 -0.47800781 9.12199219 -0.4375 8.3125 C-0.37272461 7.11657227 -0.37272461 7.11657227 -0.30664062 5.89648438 C-0.20072632 3.93118553 -0.09987449 1.96561504 0 0 Z " fill="#5F3E16" transform="translate(491,533)"/>
<path d="M0 0 C1.48285242 0.95262034 2.96118201 1.91228405 4.4375 2.875 C5.67306641 3.67550781 5.67306641 3.67550781 6.93359375 4.4921875 C9 6 9 6 10 8 C7.6875 8.625 7.6875 8.625 5 9 C4.01 8.34 3.02 7.68 2 7 C2.33 6.34 2.66 5.68 3 5 C2.01 5.33 1.02 5.66 0 6 C-1.24546405 3.50907189 -0.7767578 2.58919267 0 0 Z " fill="#14151F" transform="translate(699,192)"/>
<path d="M0 0 C0.66 0.33 1.32 0.66 2 1 C-2.78526509 4.40263727 -7.58218475 7.79076395 -12.5 11 C-13.1290625 11.4125 -13.758125 11.825 -14.40625 12.25 C-14.9321875 12.4975 -15.458125 12.745 -16 13 C-16.66 12.67 -17.32 12.34 -18 12 C-6.67442562 2.70928059 -6.67442562 2.70928059 0 0 Z " fill="#06111E" transform="translate(613,187)"/>
<path d="M0 0 C0 4.61538462 0 4.61538462 -1 7 C-2.65438613 7.69658363 -4.32254318 8.36096883 -6 9 C-7.69497424 10.93711342 -8.85244474 12.70488948 -10 15 C-10.99 14.67 -11.98 14.34 -13 14 C-8.88380164 9.08064098 -4.59589638 4.47352044 0 0 Z " fill="#F59211" transform="translate(364,359)"/>
<path d="M0 0 C0.433125 0.495 0.86625 0.99 1.3125 1.5 C2.99740483 3.33218192 2.99740483 3.33218192 6 3 C6 3.99 6 4.98 6 6 C5.01 6.495 5.01 6.495 4 7 C4.33 8.051875 4.66 9.10375 5 10.1875 C5.83966782 13.38873357 6.19750904 15.7411008 6 19 C3.88565935 15.82848903 2.98044063 13.13567139 1.875 9.5 C1.52179687 8.3553125 1.16859375 7.210625 0.8046875 6.03125 C0 3 0 3 0 0 Z " fill="#66B7EC" transform="translate(733,231)"/>
<path d="M0 0 C0 3.56303185 -0.68690567 4.18437683 -2.875 6.875 C-4.75630492 9.2661913 -6.00770028 11.01967849 -7.125 13.875 C-8 16 -8 16 -10.125 17.3125 C-11.053125 17.6528125 -11.053125 17.6528125 -12 18 C-10.51724605 13.62466048 -8.24005492 10.40276821 -5.4375 6.75 C-4.8197168 5.93789063 -4.8197168 5.93789063 -4.18945312 5.109375 C-1.21552579 1.21552579 -1.21552579 1.21552579 0 0 Z " fill="#EDAE49" transform="translate(268,455)"/>
<path d="M0 0 C0 3 0 3 -2 6 C-2.66 6 -3.32 6 -4 6 C-4 7.32 -4 8.64 -4 10 C-5.175625 10.4021875 -5.175625 10.4021875 -6.375 10.8125 C-9.28114923 11.84814432 -9.28114923 11.84814432 -11 15 C-11.66 15 -12.32 15 -13 15 C-11.38989473 10.92623969 -8.46177729 8.23492931 -5.375 5.25 C-4.859375 4.74339844 -4.34375 4.23679687 -3.8125 3.71484375 C-2.54616661 2.47196098 -1.2736856 1.23534724 0 0 Z " fill="#3FA1E9" transform="translate(694,347)"/>
<path d="M0 0 C3.0319853 1.51599265 3.41024437 3.8596433 4.6875 6.9375 C5.14511719 8.01902344 5.60273438 9.10054687 6.07421875 10.21484375 C7 13 7 13 6 15 C2.12205672 11.7683806 1.04839982 8.89253251 0 4 C0 2.68 0 1.36 0 0 Z " fill="#ECA639" transform="translate(284,578)"/>
<path d="M0 0 C1.45665924 0.20009055 2.91517209 0.38701546 4.375 0.5625 C6.169375 0.7790625 6.169375 0.7790625 8 1 C8 1.33 8 1.66 8 2 C-0.71700174 2.14368684 -9.31320899 1.71961582 -18 1 C-18 0.67 -18 0.34 -18 0 C-5.69469027 -1.29424779 -5.69469027 -1.29424779 0 0 Z " fill="#624018" transform="translate(517,531)"/>
<path d="M0 0 C0 3.41991098 -0.80837491 5.08125425 -2.3125 8.125 C-2.74175781 9.01445312 -3.17101562 9.90390625 -3.61328125 10.8203125 C-5 13 -5 13 -8 14 C-6.92539529 7.55237175 -4.76346081 4.51275234 0 0 Z " fill="#F0A42F" transform="translate(250,485)"/>
<path d="M0 0 C1.32 0.33 2.64 0.66 4 1 C0.04 4.3 -3.92 7.6 -8 11 C-9 7 -9 7 -9 5 C-8.2575 4.9175 -7.515 4.835 -6.75 4.75 C-3.85471119 4.21103995 -3.85471119 4.21103995 -1.9375 1.875 C-1.298125 1.25625 -0.65875 0.6375 0 0 Z " fill="#0A101B" transform="translate(565,154)"/>
<path d="M0 0 C4.29 0 8.58 0 13 0 C13 0.99 13 1.98 13 3 C9.04 3 5.08 3 1 3 C0.67 2.01 0.34 1.02 0 0 Z " fill="#190E0D" transform="translate(646,123)"/>
<path d="M0 0 C0.99 0 1.98 0 3 0 C3.20625 0.804375 3.4125 1.60875 3.625 2.4375 C5.42860362 7.110473 8.12115309 10.92616004 11 15 C10.67 15.66 10.34 16.32 10 17 C8.69858519 15.29908111 7.40927835 13.58889459 6.125 11.875 C5.40570313 10.92367187 4.68640625 9.97234375 3.9453125 8.9921875 C2.01788981 6.02751726 0.95529222 3.38877345 0 0 Z " fill="#EEB24D" transform="translate(248,617)"/>
<path d="M0 0 C2 3 2 3 1.8125 6.3125 C1.00159286 9.99277085 -0.07721644 12.76972362 -2 16 C-2.66 16.33 -3.32 16.66 -4 17 C-2.68 11.39 -1.36 5.78 0 0 Z " fill="#EEEBE4" transform="translate(668,607)"/>
<path d="M0 0 C0.66 0 1.32 0 2 0 C2.33 0.99 2.66 1.98 3 3 C-0.5087188 6.09592835 -3.49197399 7.74194623 -8 9 C-7.04270084 7.87411986 -6.08412105 6.7493285 -5.125 5.625 C-4.59132813 4.99851562 -4.05765625 4.37203125 -3.5078125 3.7265625 C-2.38567993 2.44163349 -1.20628025 1.20628025 0 0 Z " fill="#EDE8E0" transform="translate(359,474)"/>
<path d="M0 0 C0 4.00866157 -1.44101711 6.98350199 -4 10 C-7.25 10.9375 -7.25 10.9375 -10 11 C-6.79239749 7.19364503 -3.59253891 3.45436433 0 0 Z " fill="#13202C" transform="translate(663,448)"/>
<path d="M0 0 C0.99 0.33 1.98 0.66 3 1 C1.625 2.5 1.625 2.5 0 4 C-0.66 4 -1.32 4 -2 4 C-2.33 4.99 -2.66 5.98 -3 7 C-3.66 7 -4.32 7 -5 7 C-5.28875 7.639375 -5.5775 8.27875 -5.875 8.9375 C-7 11 -7 11 -9 12 C-8.45015228 8.12488273 -6.72444669 6.40423494 -3.9375 3.75 C-3.20402344 3.04359375 -2.47054688 2.3371875 -1.71484375 1.609375 C-1.14894531 1.07828125 -0.58304687 0.5471875 0 0 Z " fill="#1A120F" transform="translate(263,417)"/>
<path d="M0 0 C0.66 0.33 1.32 0.66 2 1 C-1.63 4.63 -5.26 8.26 -9 12 C-9.33 10.68 -9.66 9.36 -10 8 C-9.44570313 7.59007812 -8.89140625 7.18015625 -8.3203125 6.7578125 C-7.59585938 6.21898437 -6.87140625 5.68015625 -6.125 5.125 C-5.04605469 4.32449219 -5.04605469 4.32449219 -3.9453125 3.5078125 C-1.91747368 2.00126838 -1.91747368 2.00126838 0 0 Z " fill="#71C2F5" transform="translate(743,365)"/>
<path d="M0 0 C0.66 0.33 1.32 0.66 2 1 C-0.31 3.97 -2.62 6.94 -5 10 C-6.32 9.67 -7.64 9.34 -9 9 C-6.03 6.03 -3.06 3.06 0 0 Z " fill="#5EA9DA" transform="translate(718,321)"/>
<path d="M0 0 C1.32 0.66 2.64 1.32 4 2 C1.36 4.64 -1.28 7.28 -4 10 C-5 6 -5 6 -4 4 C-2.68 4 -1.36 4 0 4 C0 2.68 0 1.36 0 0 Z " fill="#E3A13A" transform="translate(499,612)"/>
<path d="M0 0 C0 3.61759584 -0.98217502 4.95698951 -2.875 8 C-3.40867187 8.86625 -3.94234375 9.7325 -4.4921875 10.625 C-5.63888508 12.43119722 -6.81324441 14.21986661 -8 16 C-7.45251869 9.15648361 -5.10328336 4.59295503 0 0 Z " fill="#130C0A" transform="translate(507,374)"/>
<path d="M0 0 C0.66 0.33 1.32 0.66 2 1 C-1.63 4.3 -5.26 7.6 -9 11 C-9.99 10.67 -10.98 10.34 -12 10 C-10.75160501 8.894019 -9.50120766 7.79029799 -8.25 6.6875 C-7.55390625 6.07261719 -6.8578125 5.45773437 -6.140625 4.82421875 C-4.14885494 3.12685266 -2.11101085 1.54522191 0 0 Z " fill="#130C0B" transform="translate(483,670)"/>
<path d="M0 0 C-1.28627711 1.17260611 -2.57919783 2.3379283 -3.875 3.5 C-4.59429687 4.1496875 -5.31359375 4.799375 -6.0546875 5.46875 C-8 7 -8 7 -10 7 C-10 6.01 -10 5.02 -10 4 C-9.01 4 -8.02 4 -7 4 C-7 3.01 -7 2.02 -7 1 C-3.375 -1.125 -3.375 -1.125 0 0 Z " fill="#EDA93E" transform="translate(462,655)"/>
<path d="M0 0 C0.66 0.33 1.32 0.66 2 1 C-1.80770026 4.23077598 -5.52729632 6.8043091 -10 9 C-12.21484375 8.60546875 -12.21484375 8.60546875 -14 8 C-13.24074219 7.59007812 -12.48148437 7.18015625 -11.69921875 6.7578125 C-10.70535156 6.21898437 -9.71148437 5.68015625 -8.6875 5.125 C-7.20830078 4.32449219 -7.20830078 4.32449219 -5.69921875 3.5078125 C-2.90413542 1.99277874 -2.90413542 1.99277874 0 0 Z " fill="#220E04" transform="translate(419,622)"/>
<path d="M0 0 C0.66 0.33 1.32 0.66 2 1 C-2.31167957 5.7834743 -5.88273588 8.87768388 -12 11 C-10.73953157 7.21859472 -9.27125859 6.55893684 -6 4.375 C-2.85077459 2.37387211 -2.85077459 2.37387211 0 0 Z " fill="#120A08" transform="translate(409,596)"/>
<path d="M0 0 C4.75 0.875 4.75 0.875 7 2 C7.8125 3.875 7.8125 3.875 8 6 C6.5625 7.75 6.5625 7.75 5 9 C1.125 2.25 1.125 2.25 0 0 Z " fill="#F0EBE4" transform="translate(559,513)"/>
<path d="M0 0 C0.99 0 1.98 0 3 0 C1.48446596 3.47775179 -0.5773456 5.9557984 -3.125 8.75 C-4.21167969 9.94882812 -4.21167969 9.94882812 -5.3203125 11.171875 C-5.87460937 11.77515625 -6.42890625 12.3784375 -7 13 C-7 9.42808296 -6.41190492 9.02077328 -4.0625 6.5 C-1.92527675 4.19604302 -1.01747885 3.05243655 0 0 Z " fill="#200B02" transform="translate(272,446)"/>
<path d="M0 0 C0 0.99 0 1.98 0 3 C-3 5 -3 5 -6 5 C-6.33 5.99 -6.66 6.98 -7 8 C-8.65 7.67 -10.3 7.34 -12 7 C-9.76425178 4.76425178 -7.71033371 3.75631642 -4.875 2.375 C-3.96492187 1.92898438 -3.05484375 1.48296875 -2.1171875 1.0234375 C-1.06917969 0.51683594 -1.06917969 0.51683594 0 0 Z " fill="#0E1A27" transform="translate(520,272)"/>
<path d="M0 0 C0 3.10551666 -0.5393715 4.35261084 -2 7 C-2.99 7 -3.98 7 -5 7 C-4.67 7.99 -4.34 8.98 -4 10 C-5.65 10.33 -7.3 10.66 -9 11 C-6.36113346 6.7973607 -3.63559661 3.43361902 0 0 Z " fill="#DFA03E" transform="translate(287,434)"/>
<path d="M0 0 C0.33 0.99 0.66 1.98 1 3 C-0.51552722 5.79883656 -2.55554588 7.97682414 -5 10 C-8.875 10.9375 -8.875 10.9375 -12 11 C-10.4185624 9.94570827 -8.83619465 8.89274215 -7.24609375 7.8515625 C-2.62583853 4.78491778 -2.62583853 4.78491778 0 0 Z " fill="#0E0706" transform="translate(575,758)"/>
<path d="M0 0 C0.66 0.33 1.32 0.66 2 1 C2 1.99 2 2.98 2 4 C-1.08809695 5.76462683 -2.23312136 6 -6 6 C-6.33 6.66 -6.66 7.32 -7 8 C-7 7.01 -7 6.02 -7 5 C-5.46875 3.61328125 -5.46875 3.61328125 -3.5 2.3125 C-2.8503125 1.87550781 -2.200625 1.43851563 -1.53125 0.98828125 C-1.0259375 0.66214844 -0.520625 0.33601562 0 0 Z " fill="#F1ECE6" transform="translate(466,686)"/>
<path d="M0 0 C5.94 1.485 5.94 1.485 12 3 C12 3.66 12 4.32 12 5 C7.12335991 5.34833144 4.22949995 4.41685712 0 2 C0 1.34 0 0.68 0 0 Z " fill="#2A2321" transform="translate(549,356)"/>
<path d="M0 0 C0.99 0.33 1.98 0.66 3 1 C-0.3 4.3 -3.6 7.6 -7 11 C-7 7.22089522 -6.00296038 6.53893899 -3.5 3.8125 C-2.8503125 3.09707031 -2.200625 2.38164062 -1.53125 1.64453125 C-1.0259375 1.10183594 -0.520625 0.55914062 0 0 Z " fill="#74C5F6" transform="translate(590,200)"/>
<path d="M0 0 C4.61513112 1.31860889 8.09897612 3.21355437 12 6 C10 7 10 7 7 6.1875 C3.23580833 4.69750746 2.24580817 3.36871226 0 0 Z " fill="#6CBBEB" transform="translate(715,143)"/>
<path d="M0 0 C0.99 0.99 1.98 1.98 3 3 C1.02 5.31 -0.96 7.62 -3 10 C-3.33 8.68 -3.66 7.36 -4 6 C-2.68 5.67 -1.36 5.34 0 5 C0 3.35 0 1.7 0 0 Z " fill="#EAA238" transform="translate(480,631)"/>
<path d="M0 0 C0.66 0.33 1.32 0.66 2 1 C-0.78999451 4.48749314 -3.25235831 7.50157221 -7 10 C-7 6.04435836 -5.59478606 4.89133304 -3 2 C-2.01 1.34 -1.02 0.68 0 0 Z " fill="#100908" transform="translate(550,132)"/>
<path d="M0 0 C0.33 1.32 0.66 2.64 1 4 C0.0925 4.28875 -0.815 4.5775 -1.75 4.875 C-4.32202908 5.76531776 -6.61346766 6.71494413 -9 8 C-7.50164772 3.33845958 -4.11536409 2.13389249 0 0 Z " fill="#160E0D" transform="translate(562,124)"/>
<path d="M0 0 C0.66 1.32 1.32 2.64 2 4 C-3.625 7 -3.625 7 -7 7 C-4.69 4.69 -2.38 2.38 0 0 Z " fill="#14202E" transform="translate(744,366)"/>
<path d="M0 0 C1.32 0.33 2.64 0.66 4 1 C2.50902342 4.7952131 0.24299151 6.61042731 -3 9 C-2.01 6.03 -1.02 3.06 0 0 Z " fill="#0C111C" transform="translate(542,172)"/>
<path d="M0 0 C0.33 0.66 0.66 1.32 1 2 C0.0625 4.625 0.0625 4.625 -1 7 C-0.34 7.33 0.32 7.66 1 8 C-0.98 8.99 -0.98 8.99 -3 10 C-3.75 7.8125 -3.75 7.8125 -4 5 C-2.0625 2.1875 -2.0625 2.1875 0 0 Z " fill="#130B09" transform="translate(541,702)"/>
<path d="M0 0 C0.33 1.32 0.66 2.64 1 4 C0.21625 4.61875 -0.5675 5.2375 -1.375 5.875 C-3.96837647 7.89858661 -3.96837647 7.89858661 -6 10 C-5.49477778 5.62140745 -2.82172778 3.18348776 0 0 Z " fill="#160D0C" transform="translate(616,653)"/>
<path d="M0 0 C-1.5830577 4.2742558 -4.50568404 6.26531794 -8 9 C-8 6 -8 6 -6.7578125 4.39453125 C-5.94957031 3.61142578 -5.94957031 3.61142578 -5.125 2.8125 C-4.59132813 2.28269531 -4.05765625 1.75289063 -3.5078125 1.20703125 C-2 0 -2 0 0 0 Z " fill="#3EA1E8" transform="translate(707,336)"/>
<path d="M0 0 C0.99 0.66 1.98 1.32 3 2 C0.37801226 4.15377564 -1.64404172 5.40072174 -5 6 C-3.63016497 2.83884224 -3.0109362 2.0072908 0 0 Z " fill="#271E1B" transform="translate(543,286)"/>
<path d="M0 0 C1.32 1.65 2.64 3.3 4 5 C2.02 5.99 2.02 5.99 0 7 C-0.38133299 5.0085944 -0.71325582 3.00720923 -1 1 C-0.67 0.67 -0.34 0.34 0 0 Z " fill="#2B1E1E" transform="translate(316,583)"/>
<path d="M0 0 C0 0.99 0 1.98 0 3 C-2.5 4.6875 -2.5 4.6875 -5 6 C-5.66 5.34 -6.32 4.68 -7 4 C-4.82575883 1.49962266 -3.26954202 0.56371414 0 0 Z " fill="#29211E" transform="translate(439,568)"/>
<path d="M0 0 C0.33 0 0.66 0 1 0 C1.33 3.3 1.66 6.6 2 10 C1.34 10 0.68 10 0 10 C-1.125 2.25 -1.125 2.25 0 0 Z " fill="#F5F1EB" transform="translate(202,560)"/>
<path d="M0 0 C0.66 0.33 1.32 0.66 2 1 C0.29374499 3.78388975 -0.47626739 4.85384206 -3.6875 5.75 C-4.8321875 5.87375 -4.8321875 5.87375 -6 6 C-2.25 1.125 -2.25 1.125 0 0 Z " fill="#311C0D" transform="translate(392,402)"/>
<path d="M0 0 C0 3.20395416 -0.74335022 5.09399739 -2 8 C-3.65 8 -5.3 8 -7 8 C-6.02133662 6.85373678 -5.04205413 5.70800212 -4.0625 4.5625 C-3.51722656 3.92441406 -2.97195313 3.28632813 -2.41015625 2.62890625 C-1.63204305 1.73008851 -0.84063472 0.84063472 0 0 Z " fill="#5DB4EE" transform="translate(655,385)"/>
<path d="M0 0 C0.99 0 1.98 0 3 0 C5.1875 2.5 5.1875 2.5 7 5 C3 5 3 5 1.25 3.625 C0 2 0 2 0 0 Z " fill="#3F9FEA" transform="translate(484,268)"/>
<path d="M0 0 C0.598125 0.20625 1.19625 0.4125 1.8125 0.625 C-1.1575 3.1 -1.1575 3.1 -4.1875 5.625 C-4.5175 4.305 -4.8475 2.985 -5.1875 1.625 C-2.1875 -0.375 -2.1875 -0.375 0 0 Z " fill="#0E1722" transform="translate(505.1875,213.375)"/>
<path d="M0 0 C0.33 0.66 0.66 1.32 1 2 C-0.4098361 6.2295083 -3.16421847 7.08210924 -7 9 C-5.44499019 5.18315774 -2.96404505 2.80804268 0 0 Z " fill="#6ABBF1" transform="translate(513,207)"/>
<path d="M0 0 C1.32 0.33 2.64 0.66 4 1 C2.68 2.32 1.36 3.64 0 5 C-0.99 4.67 -1.98 4.34 -3 4 C-2.01 2.68 -1.02 1.36 0 0 Z " fill="#2B2422" transform="translate(481,197)"/>
<path d="M0 0 C0.99 0.33 1.98 0.66 3 1 C0.03 3.475 0.03 3.475 -3 6 C-3 4.68 -3 3.36 -3 2 C-2.01 1.34 -1.02 0.68 0 0 Z " fill="#DEDAD4" transform="translate(306,371)"/>
<path d="M0 0 C-1.36983503 3.16115776 -1.9890638 3.9927092 -5 6 C-5.33 4.68 -5.66 3.36 -6 2 C-2.25 0 -2.25 0 0 0 Z " fill="#E9E5DC" transform="translate(654,345)"/>
<path d="M0 0 C0.33 0.99 0.66 1.98 1 3 C1.99 3 2.98 3 4 3 C2.84826645 5.46800047 1.95216435 7.04783565 0 9 C0 6.03 0 3.06 0 0 Z " fill="#271E1D" transform="translate(711,270)"/>
<path d="M0 0 C3.0916909 2.52956528 3.90931332 5.22454612 5 9 C4.01 9.495 4.01 9.495 3 10 C2.49596232 8.70990357 1.99690074 7.41786211 1.5 6.125 C1.2215625 5.40570313 0.943125 4.68640625 0.65625 3.9453125 C0 2 0 2 0 0 Z " fill="#68B0DD" transform="translate(771,198)"/>
<path d="M0 0 C0.66 0 1.32 0 2 0 C0.44499019 3.81684226 -2.03595495 6.19195732 -5 9 C-4.42676569 5.13066838 -2.61046448 2.84777943 0 0 Z " fill="#F7F3EE" transform="translate(472,204)"/>
<path d="M0 0 C1.32 0.66 2.64 1.32 4 2 C1.64046906 4.35953094 0.22104383 4.49141413 -3 5 C-2.67 4.01 -2.34 3.02 -2 2 C-1.34 2 -0.68 2 0 2 C0 1.34 0 0.68 0 0 Z " fill="#18100D" transform="translate(431,702)"/>
<path d="M0 0 C0 2 0 2 -2.375 4.625 C-5 7 -5 7 -7 7 C-7 6.01 -7 5.02 -7 4 C-2.65714286 0 -2.65714286 0 0 0 Z " fill="#130D0B" transform="translate(597,675)"/>
<path d="M0 0 C0.66 0.33 1.32 0.66 2 1 C0.35 2.98 -1.3 4.96 -3 7 C-3.66 6.67 -4.32 6.34 -5 6 C-5 5.34 -5 4.68 -5 4 C-4.01 4 -3.02 4 -2 4 C-1.34 2.68 -0.68 1.36 0 0 Z " fill="#E4E0D9" transform="translate(606,662)"/>
<path d="M0 0 C0.33 0.66 0.66 1.32 1 2 C0.22265625 3.7265625 0.22265625 3.7265625 -0.9375 5.625 C-1.618125 6.73875 -2.29875 7.8525 -3 9 C-3.66 8.67 -4.32 8.34 -5 8 C-3.35 5.36 -1.7 2.72 0 0 Z " fill="#140D0B" transform="translate(628,634)"/>
<path d="M0 0 C0.99 0.33 1.98 0.66 3 1 C1.515 3.475 1.515 3.475 0 6 C-0.99 5.34 -1.98 4.68 -3 4 C-2.01 2.68 -1.02 1.36 0 0 Z " fill="#271E1C" transform="translate(593,408)"/>
<path d="M0 0 C0.66 0.66 1.32 1.32 2 2 C0.35 3.65 -1.3 5.3 -3 7 C-3.99 6.67 -4.98 6.34 -6 6 C-4.02 4.02 -2.04 2.04 0 0 Z " fill="#140D0A" transform="translate(643,357)"/>
<path d="M0 0 C0.66 0 1.32 0 2 0 C0.87548273 2.9719385 -0.22293791 5.33440687 -2 8 C-2.66 7.67 -3.32 7.34 -4 7 C-2.68 4.69 -1.36 2.38 0 0 Z " fill="#140D0B" transform="translate(707,289)"/>
</svg>
